#!OML:ASF H:\Terrain\Walking\May29\JustinRory\rory.ASF
:FULLY-SPECIFIED
:DEGREES
482
root 8.36994 16.4343 -5.48954 -7.61912 44.4582 -11.1745
lowerback 31.0994 1.95623 6.18371
upperback 10.193 5.00711 2.94066
thorax -5.19151 2.64207 -1.98967
lowerneck -6.77373 -19.0063 -12.3013
upperneck -17.1031 -22.8389 33.467
head 2.06858 -11.8427 10.4245
rclavicle -1.55052e-014 7.15625e-015
rhumerus 101.112 -56.7665 -117.208
rradius 8.13034
rwrist 68.3382
rhand -20.1915 15.2134
rfingers 7.12502
rthumb 6.15498 -14.6772
lclavicle -1.55052e-014 7.15625e-015
lhumerus -41.8107 25.9322 31.5611
lradius 18.004
lwrist -8.75851
lhand -28.8121 32.5484
lfingers 7.12502
lthumb -2.17021 62.5171
rfemur -27.4076 -1.98773 3.97817
rtibia 33.6226
rfoot 5.0063 -21.724
rtoes 10.3652
lfemur -51.99 -6.67733 -8.24943
ltibia 79.9556
lfoot -7.10882 12.6378
ltoes -3.11763
483
root 8.41041 16.4734 -5.3858 -8.09476 43.731 -11.7007
lowerback 31.1311 2.08567 6.39234
upperback 10.1552 5.22648 2.93657
thorax -5.21261 2.74476 -2.18666
lowerneck -6.90237 -19.0091 -12.0261
upperneck -16.5697 -22.9698 33.1327
head 2.17015 -11.8656 10.2244
rclavicle -7.23576e-014 -1.35174e-014
rhumerus 99.8292 -56.7809 -116.052
rradius 8.03535
rwrist 68.7842
rhand -20.4913 14.917
rfingers 7.12502
rthumb 5.8655 -14.9819
lclavicle -7.23576e-014 -1.35174e-014
lhumerus -42.9133 25.918 30.6157
lradius 18.0979
lwrist -8.35795
lhand -28.6337 32.262
lfingers 7.12502
lthumb -1.99792 62.2324
rfemur -27.2095 -2.00126 4.84205
rtibia 33.7383
rfoot 4.41115 -20.9869
rtoes 10.6101
lfemur -52.2372 -6.1453 -8.18557
ltibia 80.8073
lfoot -6.74925 14.023
ltoes 0.801585
484
root 8.45258 16.4998 -5.27529 -8.48292 42.9379 -12.1596
lowerback 31.0352 2.23982 6.62327
upperback 10.1392 5.4734 2.95631
thorax -5.14697 2.86466 -2.36952
lowerneck -6.95464 -19.0057 -12.0013
upperneck -15.9758 -23.105 32.9394
head 2.33684 -11.8844 10.1023
rclavicle -7.55382e-014 -1.19271e-014
rhumerus 98.6442 -56.8535 -114.814
rradius 7.84066
rwrist 69.2295
rhand -20.6849 14.4472
rfingers 7.12502
rthumb 5.67859 -15.4567
lclavicle -7.55382e-014 -1.19271e-014
lhumerus -44.0847 26.3368 29.5196
lradius 18.0774
lwrist -8.6575
lhand -28.348 32.255
lfingers 7.12502
lthumb -1.72202 62.2278
rfemur -27.0017 -2.12839 5.72966
rtibia 33.8527
rfoot 4.11899 -19.9564
rtoes 9.01936
lfemur -52.4976 -5.51024 -8.19849
ltibia 81.6045
lfoot -6.60711 15.3486
ltoes 4.94584
485
root 8.4833 16.5212 -5.16127 -9.09151 42.3497 -12.8149
lowerback 30.9177 2.34545 6.92579
upperback 10.1897 5.69207 3.10896
thorax -5.0036 2.97734 -2.43049
lowerneck -6.79752 -19.002 -12.1426
upperneck -15.613 -23.1963 32.8675
head 2.43907 -11.9112 10.0776
rclavicle -2.18663e-014 -1.98785e-015
rhumerus 97.6359 -57.0199 -113.583
rradius 7.66267
rwrist 69.5576
rhand -20.5454 13.9182
rfingers 7.12502
rthumb 5.81329 -15.982
lclavicle -2.18663e-014 -1.98785e-015
lhumerus -45.3086 26.8388 28.602
lradius 18.2516
lwrist -8.74498
lhand -28.2975 32.2041
lfingers 7.12502
lthumb -1.67328 62.1772
rfemur -26.7577 -2.27135 6.74386
rtibia 34.068
rfoot 4.30174 -19.1185
rtoes 4.89062
lfemur -52.7402 -4.9286 -8.08261
ltibia 82.26
lfoot -6.51751 16.0625
ltoes 5.18785
486
root 8.50991 16.54 -5.04906 -9.60321 41.9085 -13.3911
lowerback 30.9253 2.44109 7.14844
upperback 10.2089 5.88994 3.28092
thorax -4.96479 3.07376 -2.42771
lowerneck -6.91433 -19.1488 -12.2355
upperneck -15.2178 -23.4921 32.668
head 2.60541 -12.0118 9.93636
rclavicle -3.18055e-015 -2.5842e-014
rhumerus 96.6787 -57.2523 -112.39
rradius 7.60012
rwrist 69.7491
rhand -20.4957 13.8214
rfingers 7.12502
rthumb 5.86123 -16.0775
lclavicle -3.18055e-015 -2.5842e-014
lhumerus -46.286 26.6472 28.4189
lradius 18.6758
lwrist -7.68763
lhand -28.4742 31.9128
lfingers 7.12502
lthumb -1.84385 61.8846
rfemur -26.5344 -2.43819 7.59885
rtibia 34.2086
rfoot 4.31651 -18.557
rtoes 2.56723
lfemur -53.0028 -4.38971 -8.04061
ltibia 82.7001
lfoot -6.64105 15.8627
ltoes 8.85151
487
root 8.55815 16.5576 -4.94335 -8.32688 41.7792 -12.0221
lowerback 30.604 2.53468 6.30807
upperback 10.0764 5.69267 2.84186
thorax -5.02455 2.96533 -2.3651
lowerneck -7.25589 -19.1663 -11.9626
upperneck -14.6428 -23.6357 32.2598
head 2.74269 -12.0186 9.69497
rclavicle -2.40529e-014 -4.21423e-014
rhumerus 95.4279 -57.1826 -111.29
rradius 7.52183
rwrist 69.8066
rhand -20.393 13.4752
rfingers 7.12502
rthumb 5.96041 -16.421
lclavicle -2.40529e-014 -4.21423e-014
lhumerus -47.2611 25.8123 28.3987
lradius 19.275
lwrist -5.96724
lhand -28.3802 32.019
lfingers 7.12502
lthumb -1.75311 61.9915
rfemur -26.744 -3.42673 6.77711
rtibia 34.4337
rfoot 3.48551 -17.8353
rtoes 4.66163
lfemur -53.5514 -4.41257 -9.70706
ltibia 82.8052
lfoot -6.96787 15.1329
ltoes 9.28694
